<?xml version="1.0" encoding="iso-8859-1"?>
<!-- Generator: Adobe Illustrator 18.0.0, SVG Export Plug-In . SVG Version: 6.00 Build 0)  -->
<!DOCTYPE svg PUBLIC "-//W3C//DTD SVG 1.1//EN" "http://www.w3.org/Graphics/SVG/1.1/DTD/svg11.dtd">
<svg version="1.1" id="_x35_" xmlns="http://www.w3.org/2000/svg" xmlns:xlink="http://www.w3.org/1999/xlink" x="0px" y="0px"
	 viewBox="0 0 512 512" style="enable-background:new 0 0 512 512;" xml:space="preserve">
<g>
	<path style="fill:#E9E4D7;" d="M446.593,512H65.189C29.186,512,0,482.814,0,446.811V65.407C0,29.404,29.186,0.218,65.189,0.218
		h381.403c36.003,0,65.19,29.186,65.19,65.189v381.403C511.783,482.814,482.596,512,446.593,512z"/>
	<path style="fill:#D3C39B;" d="M511.774,442.124v31.44c0,21.223-17.188,38.436-38.41,38.436H38.436C17.214,512,0,494.787,0,473.564
		v-31.44c0,21.222,17.214,38.436,38.436,38.436h434.928C494.586,480.56,511.774,463.346,511.774,442.124z"/>
	<path style="fill:#594537;" d="M511.773,38.645v141.482H0V38.645C0,17.423,17.214,0.209,38.436,0.209h434.928
		C494.586,0.209,511.773,17.423,511.773,38.645z"/>
	<rect x="50.2" style="fill:#E31E16;" width="35.371" height="180.128"/>
	<rect x="85.571" style="fill:#E8B01E;" width="35.371" height="180.128"/>
	<rect x="120.941" style="fill:#60BD97;" width="35.371" height="180.128"/>
	<rect x="156.312" style="fill:#56A6DC;" width="35.371" height="180.128"/>
	<circle style="fill:#BEBDBD;" cx="257.62" cy="243.991" r="129.146"/>
	<path style="fill:#D9C4C3;" d="M511.774,38.436v12.445c0-21.222-17.188-38.436-38.41-38.436H38.436
		C17.214,12.445,0,29.659,0,50.881V38.436C0,17.213,17.214,0,38.436,0h434.928C494.586,0,511.774,17.213,511.774,38.436z"/>
	<path style="fill:#2B2C2D;" d="M206.283,192.663c28.098-28.099,73.679-28.289,102.033-0.602l29.642-29.642
		c-44.701-44.031-116.875-43.841-161.319,0.602c-44.442,44.443-44.632,116.617-0.601,161.318l29.642-29.642
		C177.993,266.342,178.184,220.76,206.283,192.663z"/>
	<path style="fill:#252728;" d="M338.592,324.971c44.65-44.65,44.65-117.302,0-161.951c-0.207-0.208-0.425-0.397-0.633-0.602
		l-29.642,29.642c0.208,0.204,0.426,0.394,0.633,0.602c28.305,28.305,28.305,74.361,0,102.667
		c-28.305,28.305-74.361,28.305-102.667,0c-0.208-0.207-0.398-0.424-0.602-0.633l-29.642,29.642
		c0.205,0.208,0.394,0.426,0.601,0.633C221.29,369.621,293.942,369.621,338.592,324.971z"/>
	<path style="fill:#2F3D45;" d="M320.319,181.662L320.319,181.662l-0.006-0.007c-0.062-0.063-0.113-0.131-0.175-0.193l-1.692-1.633
		l-0.045,0.045c-16.474-15.623-37.996-24.257-60.809-24.257c-23.637,0-45.833,9.18-62.503,25.85
		c-33.752,33.754-34.332,88.776-1.59,123.309l-0.043,0.043l1.632,1.702c0.062,0.062,0.131,0.113,0.194,0.176l0.001,0.001l0,0
		c16.653,16.557,38.775,25.681,62.331,25.681c23.647,0,45.851-9.183,62.528-25.858C354.554,272.11,354.607,216.162,320.319,181.662z
		 M293.098,243.996c0,9.492-3.685,18.407-10.381,25.102c-6.694,6.694-15.608,10.381-25.103,10.381
		c-9.425,0-18.269-3.651-24.948-10.254l-0.832-0.881c-13.065-13.827-12.761-36.014,0.678-49.451
		c6.683-6.683,15.581-10.365,25.059-10.365c9.121,0,17.785,3.441,24.394,9.687l0.873,0.825
		C289.448,225.718,293.098,234.565,293.098,243.996z"/>
	<path style="fill:#2F3D45;" d="M464.912,151.895h-68.403c-13.492,0-24.43-10.938-24.43-24.43V59.062
		c0-13.492,10.938-24.43,24.43-24.43h68.403c13.492,0,24.43,10.938,24.43,24.43v68.403
		C489.342,140.958,478.405,151.895,464.912,151.895z"/>
	<g>
		<g>
			<path style="fill:#252728;" d="M430.711,146.271L430.711,146.271c-29.154,0-53.008-23.853-53.008-53.007l0,0
				c0-29.154,23.854-53.008,53.008-53.008l0,0c29.154,0,53.008,23.854,53.008,53.008l0,0
				C483.719,122.418,459.865,146.271,430.711,146.271z"/>
		</g>
		<g>
			<path style="fill:#2F3133;" d="M430.711,136.766c-23.988,0-43.503-19.515-43.503-43.503s19.516-43.504,43.503-43.504
				c23.988,0,43.503,19.516,43.503,43.504S454.698,136.766,430.711,136.766z"/>
		</g>
		<g>
			<path style="fill:#252728;" d="M430.711,120.842c-15.207,0-27.578-12.372-27.578-27.578s12.372-27.578,27.578-27.578
				c15.207,0,27.579,12.372,27.579,27.578S445.918,120.842,430.711,120.842z"/>
		</g>
		<g>
			<path style="fill:#CCCCCC;" d="M430.711,104.917c-6.426,0-11.653-5.227-11.653-11.653c0-6.426,5.227-11.653,11.653-11.653
				c6.426,0,11.653,5.227,11.653,11.653C442.364,99.69,437.137,104.917,430.711,104.917z"/>
		</g>
		<g>
			<path style="fill:#2F3133;" d="M430.711,103.922c-5.877,0-10.658-4.782-10.658-10.658c0-5.877,4.781-10.658,10.658-10.658
				c5.876,0,10.658,4.781,10.658,10.658C441.369,99.14,436.587,103.922,430.711,103.922z"/>
		</g>
		<g>
			<path style="fill:#3F4244;" d="M455.458,74.151c-0.119,4.551-3.919,8.15-8.463,8.031l-0.138-0.004
				c-0.602-3.807-3.83-6.773-7.794-6.946c-0.08-0.487-0.113-0.996-0.099-1.512c0.119-4.544,3.911-8.151,8.462-8.032
				C451.969,65.807,455.576,69.607,455.458,74.151z"/>
		</g>
	</g>
	<circle style="fill:#203038;" cx="257.612" cy="243.998" r="63.336"/>
	<path style="opacity:0.58;fill:#262626;" d="M176.039,324.338c0.205,0.208,0.394,0.426,0.601,0.633
		c44.65,44.65,117.302,44.65,161.952,0c44.65-44.65,44.65-117.302,0-161.951c-0.207-0.208-0.425-0.397-0.633-0.602"/>
	
		<ellipse transform="matrix(0.8475 0.5308 -0.5308 0.8475 161.5808 -115.5877)" style="opacity:0.44;fill:#2B2C2D;" cx="281.966" cy="223.43" rx="24.587" ry="18.757"/>
	
		<ellipse transform="matrix(0.8125 0.5829 -0.5829 0.8125 183.907 -121.7425)" style="fill:#6B6F72;" cx="281.227" cy="225.049" rx="16.006" ry="12.21"/>
	
		<ellipse transform="matrix(0.7674 0.6411 -0.6411 0.7674 227.1985 -77.0466)" style="opacity:0.44;fill:#2B2C2D;" cx="219.794" cy="274.63" rx="9.609" ry="7.331"/>
	
		<ellipse transform="matrix(0.7674 0.6412 -0.6412 0.7674 228.0666 -75.5589)" style="fill:#2B2C2D;" cx="218.177" cy="276.567" rx="6.302" ry="4.808"/>
</g>
</svg>
