<?xml version="1.0" encoding="iso-8859-1"?>
<!-- Generator: Adobe Illustrator 18.0.0, SVG Export Plug-In . SVG Version: 6.00 Build 0)  -->
<!DOCTYPE svg PUBLIC "-//W3C//DTD SVG 1.1//EN" "http://www.w3.org/Graphics/SVG/1.1/DTD/svg11.dtd">
<svg version="1.1" id="_x32_" xmlns="http://www.w3.org/2000/svg" xmlns:xlink="http://www.w3.org/1999/xlink" x="0px" y="0px"
	 viewBox="0 0 512 512" style="enable-background:new 0 0 512 512;" xml:space="preserve">
<g>
	<rect style="fill:#E17B80;" width="512" height="512"/>
	<path style="opacity:0.1;fill:#231815;" d="M371.302,109.414c0,0-0.051-0.051-0.051-0.102l-25.498-25.498
		c-2.355,3.686-10.138,15.002-18.995,27.802c-15.411,22.323-34.355,49.357-34.355,49.357H248.32l-7.424,7.424L187.699,115.2
		l-5.018-5.018l-26.163-26.163c-9.165,6.656-20.838,26.931-20.07,57.549c0.051,2.816,0.154,5.53,0.307,8.09
		c1.843,37.734,8.806,47.77,8.806,47.77s-15.104,20.275-29.03,54.886l20.232,20.216l-37.179,37.179l-3.994,26.624l1.178,1.178
		l0.358,0.358l2.611,2.611l67.994,67.994l1.69,1.69l-7.066,7.014L257.229,512h14.08h194.15H512V250.061L371.302,109.414z"/>
	<g>
		<g>
			<path style="fill:#EAEFEE;" d="M256.002,385.502l-72.252-13.649c5.626,19.267,13.646,58.599,72.252,58.599
				c58.602,0,66.622-39.332,72.248-58.599L256.002,385.502z"/>
			<path style="fill:#F6BB5B;" d="M366.44,197.408c0,0,6.957-10.01,8.807-47.758c0.142-2.558,0.24-5.258,0.311-8.058
				c1.126-44.406-23.908-67.157-29.619-58.067c-2.118,3.38-10.045,14.929-19.168,28.112c-15.435,22.303-34.363,49.326-34.363,49.326
				h-36.407h-36.411c0,0-18.928-27.022-34.358-49.326c-9.128-13.182-17.05-24.732-19.173-28.112
				c-5.705-9.09-30.738,13.66-29.618,58.067c0.074,2.8,0.169,5.5,0.31,8.058c1.85,37.748,8.807,47.758,8.807,47.758
				s-41.532,55.652-50.099,140.195l0.866-0.063l34.448-2.088l6.426,28.901l33.2-4.274l10.691,21.416l32.108-9.629h43.867h7.772
				H298.8l32.113,9.629l10.691-21.416l33.2,4.274l6.421-28.901l34.448,2.088l0.872,0.063
				C407.973,253.061,366.44,197.408,366.44,197.408z"/>
			<path style="fill:#FEFEFF;" d="M345.417,330.121c-30.824,16.51-82.467,43.004-86.049,44.839l-3.366,0.113l-3.365-0.113
				c-3.587-1.835-55.231-28.328-86.054-44.839c-26.893-14.418-56.04-12.169-71.565,10.631l34.278-2.088l6.393,28.894l33.036-4.27
				l10.638,21.418l15.172-4.57c4.698,11.126,15.223,31.221,61.468,31.221c46.245,0,56.766-20.096,61.464-31.221l15.172,4.57
				l10.638-21.418l33.036,4.27l6.393-28.894l34.278,2.088C401.458,317.952,372.31,315.703,345.417,330.121z"/>
			<path style="fill:#71605B;" d="M275.589,365.153c-4.161,0-19.591,0-19.591,0s-15.426,0-19.587,0
				c-11.679,0-19.178,14.174-10.008,25.848c11.434,14.555,22.091,15.004,29.595,15.004c7.498,0,18.165-0.45,29.594-15.004
				C294.766,379.326,287.272,365.153,275.589,365.153z"/>
			<g>
				<g>
					<path style="fill:#FEFEFF;" d="M320.883,166.656c0,0,13.152-18.084,17.614-23.205c4.453-5.122,11.566-2.123,13.42,5.126
						c2.956,11.505,3.097,25.815-5.979,36.293C343.662,183.731,320.883,166.656,320.883,166.656z"/>
					<path style="fill:#71605B;" d="M326.772,111.636c31.69-18.991,44.917,17.829,48.476,38.014c0.142-2.558,0.24-5.258,0.311-8.058
						c1.126-44.406-23.908-67.157-29.619-58.067C343.822,86.905,335.894,98.454,326.772,111.636z"/>
				</g>
				<path style="fill:#FEFEFF;" d="M191.117,166.656c0,0-13.152-18.084-17.614-23.205c-4.444-5.122-11.561-2.123-13.421,5.126
					c-2.951,11.505-3.092,25.815,5.979,36.293C168.343,183.731,191.117,166.656,191.117,166.656z"/>
				<path style="fill:#71605B;" d="M185.233,111.636c-31.689-18.991-44.921,17.829-48.48,38.014
					c-0.141-2.558-0.236-5.258-0.31-8.058c-1.12-44.406,23.913-67.157,29.618-58.067C168.183,86.905,176.105,98.454,185.233,111.636
					z"/>
			</g>
			<g>
				<g>
					<path style="fill:#564236;" d="M191.06,273.577h-16.899l5.46,7.412c-0.701,1.572-1.106,3.292-1.106,5.116
						c0,6.929,5.616,12.55,12.545,12.55c6.924,0,12.545-5.621,12.545-12.55C203.606,279.19,197.985,273.577,191.06,273.577z"/>
				</g>
				<g>
					<path style="fill:#564236;" d="M320.94,273.577h16.904l-5.47,7.412c0.715,1.572,1.111,3.292,1.111,5.116
						c0,6.929-5.606,12.55-12.545,12.55c-6.915,0-12.536-5.621-12.536-12.55C308.404,279.19,314.024,273.577,320.94,273.577z"/>
				</g>
			</g>
			<path style="opacity:0.13;fill:#564236;" d="M414.488,337.467l1.186,0.073l0.872,0.063
				c-8.572-84.542-50.104-140.195-50.104-140.195s6.957-10.01,8.807-47.758c0.142-2.558,0.24-5.258,0.311-8.058
				c1.126-44.406-23.908-67.157-29.619-58.067c-2.118,3.38-10.045,14.929-19.168,28.112c-15.435,22.303-34.363,49.326-34.363,49.326
				h-36.407h-2.061V430.38c0.706,0.012,1.341,0.073,2.061,0.073c49.187,0,62.74-27.707,69.146-48.003l7.489,2.257l10.638-21.418
				l33.036,4.27l6.393-28.894l34.278,2.088C416.192,339.59,415.349,338.521,414.488,337.467z"/>
		</g>
		<g>
			<g>
				<path style="fill:#C0B495;" d="M212.564,377.754h-67.357c-1.101,0-1.991,0.888-1.991,1.989c0,1.099,0.89,1.991,1.991,1.991
					h67.357c1.101,0,1.986-0.892,1.986-1.991C214.55,378.642,213.665,377.754,212.564,377.754"/>
				<path style="fill:#C0B495;" d="M212.478,367.8l-57.951-22.143c-1.026-0.39-2.17,0.122-2.566,1.154
					c-0.395,1.026,0.118,2.174,1.144,2.568l57.946,22.143c1.026,0.388,2.18-0.122,2.575-1.153
					C214.018,369.342,213.504,368.194,212.478,367.8"/>
				<path style="fill:#C0B495;" d="M212.126,386.917l-55.81,27.07c-0.988,0.478-1.403,1.671-0.922,2.659
					c0.48,0.989,1.67,1.403,2.659,0.921l55.81-27.07c0.989-0.478,1.403-1.666,0.923-2.66
					C214.305,386.849,213.114,386.437,212.126,386.917"/>
			</g>
			<g>
				<path style="fill:#C0B495;" d="M299.446,377.754h67.357c1.097,0,1.987,0.888,1.987,1.989c0,1.099-0.89,1.991-1.987,1.991
					h-67.357c-1.101,0-1.991-0.892-1.991-1.991C297.454,378.642,298.344,377.754,299.446,377.754"/>
				<path style="fill:#C0B495;" d="M299.531,367.8l57.952-22.143c1.026-0.39,2.174,0.122,2.56,1.154
					c0.396,1.026-0.118,2.174-1.144,2.568l-57.947,22.143c-1.026,0.388-2.179-0.122-2.575-1.153
					C297.992,369.342,298.504,368.194,299.531,367.8"/>
				<path style="fill:#C0B495;" d="M299.884,386.917l55.805,27.07c0.989,0.478,1.408,1.671,0.928,2.659
					c-0.485,0.989-1.676,1.403-2.665,0.921l-55.804-27.07c-0.989-0.478-1.408-1.666-0.928-2.66
					C297.699,386.849,298.891,386.437,299.884,386.917"/>
			</g>
		</g>
	</g>
</g>
</svg>
