<?xml version="1.0" encoding="iso-8859-1"?>
<!-- Generator: Adobe Illustrator 18.0.0, SVG Export Plug-In . SVG Version: 6.00 Build 0)  -->
<!DOCTYPE svg PUBLIC "-//W3C//DTD SVG 1.1//EN" "http://www.w3.org/Graphics/SVG/1.1/DTD/svg11.dtd">
<svg version="1.1" id="_x32_" xmlns="http://www.w3.org/2000/svg" xmlns:xlink="http://www.w3.org/1999/xlink" x="0px" y="0px"
	 viewBox="0 0 512 512" style="enable-background:new 0 0 512 512;" xml:space="preserve">
<g>
	<rect style="fill:#827C6D;" width="512" height="512"/>
	<path style="opacity:0.1;fill:#231815;" d="M512,210.022V512H252.415l-58.57-58.572l-2.255-2.253l-11.62-36.353l9.01-18.79
		c0,0,3.275-26.163,0-35.942c-2.87-8.653-27.905-72.04-36.71-88.32c2.355,0.46,4.71,0.307,6.86-0.615
		c-3.225-1.33-6.195-3.738-8.755-6.913l18.277-18.278l11.927-11.93l30.67-30.668l57.755-57.755l35.94-35.942l1.385-1.382
		L358.3,56.32c0,0,0,0,0.05,0.05l16.895,16.897L512,210.022z"/>
	<g>
		<g>
			<g>
				<g>
					<g>
						<path style="fill:#7F5023;" d="M167.63,272.283c-2.867,0.51-5.787,0.102-8.5-1.127c-3.225-1.33-6.195-3.738-8.755-6.913
							c-3.687-4.505-6.502-10.548-7.782-17.458c-1.843-10.138-0.053-19.713,4.25-25.908c0.972-1.382,2.048-2.56,3.225-3.585
							c0.562-0.46,1.125-0.922,1.74-1.28c1.538-1.022,3.225-1.69,5.07-2.048c9.573-1.74,19.405,6.913,23.702,20.07
							c0.565,1.74,1.025,3.585,1.385,5.477C184.935,255.59,178.535,270.285,167.63,272.283z"/>
					</g>
					<polygon style="fill:#7F5023;" points="164.075,221.633 141.503,211.255 130.715,220.152 					"/>
				</g>
				<g>
					<g>
						<path style="fill:#7F5023;" d="M330.06,239.495c-2.98,16.102,3.415,30.788,14.29,32.795
							c10.865,2.01,22.095-9.415,25.075-25.517c2.975-16.105-3.42-30.788-14.29-32.8C344.265,211.962,333.04,223.388,330.06,239.495
							z"/>
					</g>
					<path style="fill:#DEAA98;" d="M344.985,151.193l25.5,60.058l-0.105,0.052c-0.56,0.308-4.095,2.407-8.445,5.99
						c-1.435,1.128-2.92,2.458-4.455,3.943c-7.065,6.757-14.39,16.692-14.39,28.57c0,12.39,4.3,19.148,9.78,21.35l0.05,0.052
						c0.925,0.357,1.895,0.612,2.87,0.715c0.46,0.052,0.87,0.102,1.28,0.102c0.87,0.052,1.79-0.05,2.66-0.255
						c-8.805,16.28-33.84,79.667-36.71,88.32c-3.275,9.78,0,35.942,0,35.942l9.01,18.79l-12.285,38.45L256,459.775l-62.155-6.347
						l-1.59-0.155l-0.665-2.098l-11.62-36.353l9.01-18.79c0,0,3.275-26.163,0-35.942c-2.87-8.653-27.905-72.04-36.71-88.32
						c2.355,0.46,4.71,0.307,6.86-0.615c5.477-2.203,9.78-8.96,9.78-21.35c0-1.28-0.102-2.56-0.257-3.84
						c-1.33-10.19-7.832-18.688-14.13-24.73c-1.538-1.485-3.023-2.815-4.455-3.943c-4.353-3.583-7.885-5.682-8.448-5.99
						c-0.053-0.052-0.103-0.052-0.103-0.052l25.498-60.058c0,0-33.178-17.56-35.532-47.41c-2.97-37.07,22.22-47.462,22.22-47.462
						l50.383,53.35h103.83L358.3,56.32c0,0,0,0,0.05,0.05c0.87,0.36,10.545,4.762,16.895,16.897c3.735,7.22,6.4,17.1,5.325,30.515
						C378.165,133.633,344.985,151.193,344.985,151.193z"/>
					<polygon style="fill:#EF7B21;" points="204.105,109.69 203.615,141.323 227.83,130.447 233.76,164.55 267.86,133.415 
						269.84,154.172 307.895,109.69 272.8,80.04 266.375,94.865 232.28,74.107 233.76,93.383 198.545,85.97 					"/>
					<path style="fill:#7F5023;" d="M287.055,423.828c0,9.928,6.226,17.977,13.9,17.977c7.67,0,13.89-8.05,13.89-17.977
						c0-9.932-6.22-17.98-13.89-17.98C293.28,405.848,287.055,413.895,287.055,423.828z"/>
					<polygon style="fill:#7F5023;" points="347.925,221.633 370.5,211.255 381.285,220.152 					"/>
				</g>
			</g>
			<path style="fill:#7F5023;" d="M224.945,423.828c0,9.928-6.225,17.977-13.9,17.977c-7.67,0-13.89-8.05-13.89-17.977
				c0-9.932,6.22-17.98,13.89-17.98C218.72,405.848,224.945,413.895,224.945,423.828z"/>
		</g>
		<path style="opacity:0.12;fill:#7F5023;" d="M381.285,220.152l-10.785-8.897l-25.54-60.047c0,0,33.195-17.555,35.585-47.442
			c2.965-37.072-22.24-47.45-22.24-47.45l-50.41,53.375L272.8,80.04l-6.425,14.825L256,88.547V459.79l63.755-6.54l12.26-38.415
			l-8.995-18.795c0,0-3.265-26.158,0-35.965c2.88-8.642,27.925-72.037,36.715-88.297c-2.33,0.483-4.665,0.29-6.83-0.582
			c7.68-3.302,14.33-12.587,16.52-24.422c1.87-10.13,0.03-19.698-4.3-25.9L381.285,220.152z"/>
		<g>
			<polygon style="fill:#F8F8CF;" points="256,196.067 256,289.095 210.78,202.528 			"/>
			<polygon style="fill:#F8F8CF;" points="256,196.067 256,289.095 301.22,202.528 			"/>
		</g>
	</g>
</g>
</svg>
