<?xml version="1.0" encoding="iso-8859-1"?>
<!-- Generator: Adobe Illustrator 18.0.0, SVG Export Plug-In . SVG Version: 6.00 Build 0)  -->
<!DOCTYPE svg PUBLIC "-//W3C//DTD SVG 1.1//EN" "http://www.w3.org/Graphics/SVG/1.1/DTD/svg11.dtd">
<svg version="1.1" id="_x32_" xmlns="http://www.w3.org/2000/svg" xmlns:xlink="http://www.w3.org/1999/xlink" x="0px" y="0px"
	 viewBox="0 0 512 512" style="enable-background:new 0 0 512 512;" xml:space="preserve">
<g>
	<rect style="fill:#E17B80;" width="512" height="512"/>
	<polygon style="opacity:0.08;fill:#231815;" points="512,196.608 512,512 282.368,512 184.832,414.618 239.053,408.627 
		89.344,259.174 140.902,253.44 84.941,197.53 302.387,173.466 345.088,196.864 428.647,113.408 	"/>
	<g>
		<path style="fill:#B4894D;" d="M306.289,435.171c17.998,0,32.591-14.596,32.591-32.598c0-14.765-9.823-27.219-23.279-31.23
			l10.868-43.278c20.175-13.972,29.23-37.771,29.23-58.468c0-4.656,0,0,0,0c36.286,28.975,78.196-12.936,78.196-12.936
			l-110.536-77.612H188.635L78.099,256.661c0,0,41.917,41.911,78.197,12.936c0,0,0-4.656,0,0c0,20.697,9.061,44.496,29.235,58.468
			l10.868,43.278c-13.462,4.011-23.285,16.465-23.285,31.23c0,18.002,14.593,32.598,32.598,32.598H306.289z"/>
		<path style="fill:#A98249;" d="M175.333,188.389l-40.27,28.273l200.393,200.393c2.176-4.364,3.424-9.269,3.424-14.483
			c0-14.765-9.823-27.219-23.279-31.23l10.868-43.278c20.175-13.972,29.23-37.771,29.23-58.468
			c36.286,28.975,78.196-12.936,78.196-12.936l-102.287-71.822L175.333,188.389z"/>
		<g>
			<g>
				<path style="fill:#564236;" d="M319.597,277.088h16.665l-5.391,7.306c0.695,1.552,1.1,3.249,1.1,5.044
					c0,6.835-5.532,12.374-12.374,12.374c-6.823,0-12.356-5.539-12.356-12.374C307.242,282.62,312.774,277.088,319.597,277.088z"/>
			</g>
			<g>
				<path style="fill:#564236;" d="M204.758,289.437c0,6.835-5.539,12.374-12.356,12.374c-6.841,0-12.374-5.539-12.374-12.374
					c0-1.795,0.405-3.492,1.094-5.044l-5.385-7.306h16.665C199.22,277.088,204.758,282.62,204.758,289.437z"/>
			</g>
		</g>
		<g>
			<path style="fill:#564236;" d="M321.195,405.681c0,7.715-6.251,13.966-13.972,13.966c-7.715,0-13.972-6.251-13.972-13.966
				c0-7.718,6.257-13.972,13.972-13.972C314.944,391.709,321.195,397.963,321.195,405.681z"/>
			<path style="fill:#564236;" d="M218.749,405.681c0,7.715-6.257,13.966-13.978,13.966c-7.708,0-13.966-6.251-13.966-13.966
				c0-7.718,6.257-13.972,13.966-13.972C212.491,391.709,218.749,397.963,218.749,405.681z"/>
		</g>
		<g>
			<path style="fill:#FBEFD9;" d="M383.545,218.63c39.581-2.326,68.3-30.581,68.3-68.3c0-31.835-22.664-64.667-54.469-73.202
				c-5.877-1.58-7.992,4.497-3.854,9.654c10.074,12.555,15.004,30.996,9.14,44.341c-3.559,8.093-9.128,15.524-16.929,18.066
				c-24.957,8.127-60.659-6.881-104.635-3.519c-20.187,1.813-35.708,15.988-35.708,35.708c0,11.163,5.433,28.458,28.719,35.441
				C294.548,222.945,333.096,221.737,383.545,218.63z"/>
			<path style="fill:#FBEFD9;" d="M128.455,218.63c-39.587-2.326-68.3-30.581-68.3-68.3c0-31.835,22.664-64.667,54.469-73.202
				c5.877-1.58,7.992,4.497,3.848,9.654c-10.069,12.555-14.999,30.996-9.128,44.341c3.559,8.093,9.122,15.524,16.922,18.066
				c24.951,8.127,60.659-6.881,104.635-3.519c20.18,1.813,35.702,15.988,35.702,35.708c0,11.163-5.428,28.458-28.713,35.441
				C217.458,222.945,178.904,221.737,128.455,218.63z"/>
		</g>
	</g>
</g>
</svg>
