<?xml version="1.0" encoding="iso-8859-1"?>
<!-- Generator: Adobe Illustrator 18.0.0, SVG Export Plug-In . SVG Version: 6.00 Build 0)  -->
<!DOCTYPE svg PUBLIC "-//W3C//DTD SVG 1.1//EN" "http://www.w3.org/Graphics/SVG/1.1/DTD/svg11.dtd">
<svg version="1.1" id="_x31_" xmlns="http://www.w3.org/2000/svg" xmlns:xlink="http://www.w3.org/1999/xlink" x="0px" y="0px"
	 viewBox="0 0 512 512" style="enable-background:new 0 0 512 512;" xml:space="preserve">
<g>
	<rect style="fill:#99D4D9;" width="512" height="512"/>
	<polygon style="opacity:0.1;fill:#231815;" points="512,245.76 512,512 270.695,512 117.555,358.86 371.355,105.115 	"/>
	<g>
		<path style="fill:#E3E2E2;" d="M438.305,240.225c0,50.345-20.405,95.92-53.395,128.91c-32.99,32.99-73.405,90.655-128.91,90.655
			c-55.5,0-95.915-57.665-128.905-90.655C94.105,336.145,73.7,290.57,73.7,240.225c0-50.34,20.405-95.915,53.395-128.905
			C160.085,78.33,205.66,57.925,256,57.925c50.345,0,95.92,20.405,128.91,53.395C417.9,144.31,438.305,189.885,438.305,240.225z"/>
		<g>
			<path style="fill:#C9C9C9;" d="M384.91,111.32C351.92,78.33,306.345,57.925,256,57.925V459.79
				c55.505,0,95.92-57.665,128.91-90.655c32.99-32.99,53.395-78.565,53.395-128.91C438.305,189.885,417.9,144.31,384.91,111.32z"/>
		</g>
		<g>
			<path style="fill:#727171;" d="M95.85,239.78c4.12,20.595,13.445,49.74,34.895,66.24c23.63,18.17,59.065,23.16,91.905,20.07
				c7.46-0.7,13.375-6.465,11.01-18.885c-6.015-31.57-20.93-57.88-47.91-74.525c-21.935-13.53-54.48-20.4-81.01-13.87
				C96.445,220.855,93.485,227.95,95.85,239.78z"/>
			<path style="fill:#727171;" d="M416.155,239.78c-4.12,20.595-13.445,49.74-34.895,66.24c-23.625,18.17-59.065,23.16-91.905,20.07
				c-7.46-0.7-13.37-6.465-11.005-18.885c6.01-31.57,20.925-57.88,47.905-74.525c21.94-13.53,54.48-20.4,81.01-13.87
				C415.56,220.855,418.52,227.95,416.155,239.78z"/>
		</g>
		<g>
			<path style="fill:#C9C9C9;" d="M238.685,249.535c0,0-31.935-55-102.91-58.55C171.26,171.465,240.46,205.18,238.685,249.535z"/>
			<path style="fill:#D1D3D3;" d="M273.32,246.875c0,0,31.94-55,102.91-58.55C340.745,168.805,271.545,202.52,273.32,246.875z"/>
		</g>
		<path style="fill:#838384;" d="M283.8,410.705c0,3.595-2.91,6.51-6.505,6.51h-42.58c-3.595,0-6.51-2.915-6.51-6.51l0,0
			c0-3.59,2.915-6.505,6.51-6.505h42.58C280.89,404.2,283.8,407.115,283.8,410.705L283.8,410.705z"/>
		<g>
			<path style="fill:#838384;" d="M247.72,383.5c0,3.265-2.645,5.915-5.91,5.915c-3.27,0-5.915-2.65-5.915-5.915
				c0-3.265,2.645-5.915,5.915-5.915C245.075,377.585,247.72,380.235,247.72,383.5z"/>
			<path style="fill:#838384;" d="M276.11,383.5c0,3.265-2.645,5.915-5.91,5.915c-3.27,0-5.915-2.65-5.915-5.915
				c0-3.265,2.645-5.915,5.915-5.915C273.465,377.585,276.11,380.235,276.11,383.5z"/>
		</g>
		<path style="fill:#FFFFFF;" d="M170.88,238.005c-15.085-8.87-50.57-11.535-58.555-0.89c0,20.41,17.745,40.81,17.745,40.81
			L170.88,238.005z"/>
		<path style="fill:#FFFFFF;" d="M311.94,291.235l32.82-32.825C344.76,258.41,308.39,248.65,311.94,291.235z"/>
	</g>
</g>
</svg>
