<?xml version="1.0" encoding="iso-8859-1"?>
<!-- Generator: Adobe Illustrator 18.0.0, SVG Export Plug-In . SVG Version: 6.00 Build 0)  -->
<!DOCTYPE svg PUBLIC "-//W3C//DTD SVG 1.1//EN" "http://www.w3.org/Graphics/SVG/1.1/DTD/svg11.dtd">
<svg version="1.1" id="_x33_" xmlns="http://www.w3.org/2000/svg" xmlns:xlink="http://www.w3.org/1999/xlink" x="0px" y="0px"
	 viewBox="0 0 512 512" style="enable-background:new 0 0 512 512;" xml:space="preserve">
<g>
	<rect style="fill:#9CD1AB;" width="512" height="512"/>
	<path style="opacity:0.1;fill:#040000;" d="M512,261.325V512H228.966l-92.928-92.877l-43.622-43.674
		c-2.611-4.659-4.813-9.574-6.605-14.797c-23.245-68.045-1.741-132.557,19.712-189.85C127.027,113.408,178.995,66.918,256,66.918
		c32.563,0,60.621,8.294,83.814,22.272l52.378,52.327L512,261.325z"/>
	<g>
		<g>
			<path style="fill:#E84163;" d="M426.28,355.971c-23.296,68.045-116.429,89.549-170.189,89.549
				c-33.485,0-82.33-8.346-119.961-31.078c-18.125-11.008-33.69-25.344-43.622-43.674c-2.611-4.659-4.813-9.574-6.605-14.797
				c-23.245-68.045-1.741-132.557,19.712-189.85c21.504-57.395,73.472-103.885,150.477-103.885c32.563,0,60.621,8.294,83.814,22.272
				c21.965,13.107,39.527,31.334,52.377,52.326c5.683,9.267,10.445,19.098,14.285,29.286
				C428.072,223.415,449.525,287.927,426.28,355.971z"/>
			<path style="fill:#FCE4C1;" d="M354.606,147.303c-3.342-5.572-10.27-12.819-20.599-15.225c-22.88-5.331-58.17-3.583-77.918-3.583
				c-19.744,0-55.038-1.748-77.918,3.583c-10.325,2.405-17.257,9.652-20.599,15.225c-10.744,17.909-34.665,90.601-29.555,111.052
				c3.583,14.331,11.867,23.622,21.523,27.236c28.968,10.83,78.338,6.8,106.548,6.8s77.584,4.03,106.548-6.8
				c9.656-3.614,17.941-12.905,21.523-27.236C389.272,237.904,365.355,165.212,354.606,147.303z"/>
			<g>
				<path style="fill:#FDFEFE;" d="M162.893,340.754c0-8.957,6.8-19.705,19.553-19.705c12.745,0,16.149,11.642,16.149,18.807
					c0,7.165-3.404,39.406,2.549,57.319c5.949,17.914-11.898,19.705-18.698,8.957C175.642,395.384,162.893,373.892,162.893,340.754z
					"/>
				<path style="fill:#FDFEFE;" d="M109.444,344.83c-1.177-7.865,2.502-18.147,12.054-19.728c9.543-1.59,13.616,8.214,14.556,14.506
					c0.944,6.295,2.627,35.03,9.435,50.022c6.804,14.991-6.326,18.784-12.827,10.192C126.157,391.226,113.788,373.93,109.444,344.83
					z"/>
				<path style="fill:#FDFEFE;" d="M351.68,340.754c0-8.957-6.8-19.705-19.549-19.705s-16.149,11.642-16.149,18.807
					c0,7.165,3.4,39.406-2.553,57.319c-5.949,17.914,11.898,19.705,18.702,8.957C338.931,395.384,351.68,373.892,351.68,340.754z"/>
				<path style="fill:#FDFEFE;" d="M402.743,344.83c1.174-7.865-2.506-18.147-12.057-19.728c-9.544-1.59-13.616,8.214-14.556,14.506
					c-0.941,6.295-2.623,35.03-9.431,50.022c-6.804,14.991,6.322,18.784,12.823,10.192
					C386.027,391.226,398.396,373.93,402.743,344.83z"/>
			</g>
			<g>
				<path style="fill:#D2171A;" d="M294.734,263.173l-26.218-11.121c-1.395-0.591-2.972-0.567-4.348,0.066l-8.079,3.726
					l-8.079-3.726c-1.372-0.633-2.949-0.657-4.348-0.066l-26.218,11.121c-2.732,1.158-4.006,4.313-2.848,7.045
					c1.158,2.736,4.317,4.006,7.049,2.848l24.025-10.188l8.168,3.765c1.43,0.66,3.073,0.66,4.5,0l8.168-3.765l24.03,10.188
					c2.732,1.158,5.887-0.113,7.045-2.848C298.741,267.487,297.466,264.331,294.734,263.173z"/>
			</g>
			<g>
				<g>
					<g>
						<path style="fill:#EFCFA4;" d="M197.652,247.611c-23.704,0-42.989-19.285-42.989-42.989c0-23.707,19.285-42.992,42.989-42.992
							c23.707,0,42.988,19.285,42.988,42.992C240.64,228.326,221.359,247.611,197.652,247.611z"/>
						<circle style="fill:#FFFFFF;" cx="197.653" cy="204.622" r="32.243"/>
						<path style="fill:#40220F;" d="M197.652,221.211c-9.151,0-16.589-7.438-16.589-16.589c0-9.155,7.438-16.592,16.589-16.592
							c9.155,0,16.592,7.438,16.592,16.592C214.244,213.773,206.806,221.211,197.652,221.211z"/>
						<path style="fill:#40220F;" d="M139.438,227.012c-5.374,20.599-5.374,42.988,12.54,51.048c17.909,8.059,36.717,0,40.299-4.477
							l-10.744-5.374l4.476-8.063h-12.54v-10.744C173.47,249.402,147.497,255.67,139.438,227.012z"/>
						<path style="fill:#40220F;" d="M250.494,157.154c0-4.698-3.812-8.51-8.51-8.51c-3.952,0-7.243,2.708-8.199,6.365
							c-2.094,0.964-4.476,1.446-7.472,0.354c-9.855-3.583-35.827-21.497-55.528-16.122c-27.651,7.542-34.203,30.577-27.527,47.139
							c0.582,3.276,2.358,6.101,4.853,8.098c1.387,1.43,3.198,2.281,5.227,2.58c1.002,0.237,2.04,0.4,3.116,0.4
							c5.895,0,10.849-3.82,12.66-9.105c0.843-2.064,1.111-4.399,0.509-6.963c-0.381-1.919-1.193-3.676-2.3-5.207
							c-0.047-0.078-0.07-0.148-0.121-0.222c-6.225-9.338,11.642-17.91,28.658-13.433c17.02,4.476,39.468,8.436,48.363,3.583
							c3.769-2.059,5.432-4.239,5.809-6.306C250.308,158.96,250.494,158.082,250.494,157.154z"/>
					</g>
					<g>
						<path style="fill:#D2171A;" d="M231.524,220.791c-2.332,1.465-4.302,3.412-5.774,5.731c-1.461,2.316-2.436,5.059-2.444,8.071
							c-0.012,2.6,0.809,5.374,2.495,7.705c1.682,2.343,4.111,4.212,7.084,5.584c2.701,1.24,5.891,0.066,7.134-2.626
							c1.243-2.697,0.066-5.891-2.627-7.135c-1.667-0.77-2.467-1.543-2.856-2.087c-0.381-0.552-0.466-0.913-0.482-1.442
							c-0.008-0.591,0.222-1.442,0.789-2.335c0.551-0.89,1.426-1.764,2.378-2.351c2.514-1.574,3.28-4.892,1.706-7.406
							C237.356,219.987,234.042,219.221,231.524,220.791z"/>
					</g>
				</g>
				<g>
					<g>
						<path style="fill:#EFCFA4;" d="M314.528,247.611c23.707,0,42.988-19.285,42.988-42.989c0-23.707-19.281-42.992-42.988-42.992
							c-23.703,0-42.988,19.285-42.988,42.992C271.54,228.326,290.825,247.611,314.528,247.611z"/>
						<circle style="fill:#FFFFFF;" cx="314.528" cy="204.622" r="32.24"/>
						<path style="fill:#40220F;" d="M314.528,221.211c9.151,0,16.589-7.438,16.589-16.589c0-9.155-7.438-16.592-16.589-16.592
							c-9.151,0-16.588,7.438-16.588,16.592C297.94,213.773,305.377,221.211,314.528,221.211z"/>
						<path style="fill:#40220F;" d="M372.741,227.012c5.374,20.599,5.374,42.988-12.536,51.048
							c-17.913,8.059-36.721,0-40.303-4.477l10.748-5.374l-4.48-8.063h12.54v-10.744C338.71,249.402,364.682,255.67,372.741,227.012
							z"/>
						<path style="fill:#40220F;" d="M261.689,157.154c0-4.698,3.808-8.51,8.506-8.51c3.956,0,7.247,2.708,8.203,6.365
							c2.091,0.964,4.473,1.446,7.473,0.354c9.851-3.583,35.823-21.497,55.528-16.122c27.651,7.542,34.199,30.577,27.523,47.139
							c-0.579,3.276-2.358,6.101-4.849,8.098c-1.391,1.43-3.198,2.281-5.23,2.58c-1.002,0.237-2.036,0.4-3.116,0.4
							c-5.895,0-10.849-3.82-12.656-9.105c-0.843-2.064-1.111-4.399-0.513-6.963c0.384-1.919,1.197-3.676,2.304-5.207
							c0.047-0.078,0.07-0.148,0.12-0.222c6.221-9.338-11.645-17.91-28.661-13.433c-17.016,4.476-39.464,8.436-48.363,3.583
							c-3.769-2.059-5.428-4.239-5.805-6.306C261.872,158.96,261.689,158.082,261.689,157.154z"/>
					</g>
					<g>
						<path style="fill:#D2171A;" d="M280.656,220.791c2.335,1.465,4.306,3.412,5.778,5.731c1.457,2.316,2.432,5.059,2.44,8.071
							c0.016,2.6-0.808,5.374-2.495,7.705c-1.682,2.343-4.111,4.212-7.084,5.584c-2.697,1.24-5.887,0.066-7.134-2.626
							c-1.24-2.697-0.066-5.891,2.627-7.135c1.667-0.77,2.467-1.543,2.856-2.087c0.381-0.552,0.47-0.913,0.482-1.442
							c0.008-0.591-0.218-1.442-0.785-2.335c-0.555-0.89-1.43-1.764-2.378-2.351c-2.518-1.574-3.284-4.892-1.71-7.406
							C274.823,219.987,278.142,219.221,280.656,220.791z"/>
					</g>
				</g>
			</g>
		</g>
		<path style="opacity:0.18;fill:#3E0109;" d="M426.28,355.971c-23.296,68.045-116.429,89.549-170.189,89.549V62.237
			c32.563,0,60.621,8.294,83.814,22.272c21.965,13.107,39.527,31.334,52.377,52.326c5.683,9.267,10.445,19.098,14.285,29.286
			C428.072,223.415,449.525,287.927,426.28,355.971z"/>
	</g>
</g>
</svg>
