<?xml version="1.0" encoding="iso-8859-1"?>
<!-- Generator: Adobe Illustrator 18.0.0, SVG Export Plug-In . SVG Version: 6.00 Build 0)  -->
<!DOCTYPE svg PUBLIC "-//W3C//DTD SVG 1.1//EN" "http://www.w3.org/Graphics/SVG/1.1/DTD/svg11.dtd">
<svg version="1.1" id="_x32_" xmlns="http://www.w3.org/2000/svg" xmlns:xlink="http://www.w3.org/1999/xlink" x="0px" y="0px"
	 viewBox="0 0 512 512" style="enable-background:new 0 0 512 512;" xml:space="preserve">
<g>
	<rect style="fill:#499E90;" width="512" height="512"/>
	<polygon style="opacity:0.1;fill:#231815;" points="512,161.535 512,512 250.625,512 102.4,363.775 304.64,261.375 458.24,107.775 
			"/>
	<g>
		<g>
			<g>
				<path style="fill:#FCE3DF;" d="M193.68,161.065c0-17.98-13.48-74.165-47.197-74.165c-33.71,0-38.205,0-65.175,0
					c-26.97,0-44.95,38.205-31.465,60.68c11.905,19.84,16.855,22.473,23.6,31.462c6.74,8.993,25.845,24.722,46.075,24.722
					c20.225,0,74.162,0,74.162,0V161.065z"/>
				<path style="fill:#F8C9BD;" d="M119.518,173.425c-7.55,0-18.565-8.263-21.805-12.583c-2.87-3.832-5.436-6.73-7.695-9.285
					c-3.84-4.335-7.465-8.43-14.155-19.588c-0.305-0.632-0.68-3.79,0.97-7.992c1.595-4.07,3.945-6.225,4.865-6.738h64.54
					c7.28,3.517,17.105,30.713,17.105,43.825v12.36H119.518z"/>
			</g>
			<g>
				<path style="fill:#FCE3DF;" d="M318.32,161.065c0-17.98,13.49-74.165,47.2-74.165c33.71,0,38.21,0,65.18,0
					c26.96,0,44.94,38.205,31.46,60.68c-11.91,19.84-16.86,22.473-23.6,31.462c-6.74,8.993-25.85,24.722-46.07,24.722
					c-20.23,0-74.17,0-74.17,0V161.065z"/>
				<path style="fill:#F8C9BD;" d="M392.49,173.425c7.54,0,18.56-8.263,21.8-12.583c2.87-3.832,5.44-6.73,7.69-9.285
					c3.84-4.335,7.47-8.43,14.16-19.588c0.3-0.632,0.68-3.79-0.97-7.992c-1.6-4.07-3.95-6.225-4.87-6.738h-64.54
					c-7.27,3.517-17.1,30.713-17.1,43.825v12.36H392.49z"/>
			</g>
		</g>
		<g>
			<path style="fill:#FCE3DF;" d="M256,427.385c-91.848,0-174.197-43.64-174.197-138.215c0-67.038,45.3-146.702,99.807-174.815
				c22.38-11.55,47.65-9.483,74.39-9.483V427.385z"/>
			<path style="fill:#FADAD4;" d="M256,427.385c91.85,0,174.2-43.64,174.2-138.215c0-67.038-45.3-146.702-99.8-174.815
				c-22.39-11.55-47.66-9.483-74.4-9.483V427.385z"/>
		</g>
		<g>
			<path style="fill:#8A786F;" d="M191.18,255.807c0,7.328-5.95,13.27-13.277,13.27c-7.33,0-13.27-5.942-13.27-13.27
				c0-2.183,0.525-4.242,1.455-6.057c0.615-1.203,1.415-2.3,2.355-3.255c1.115-1.13,2.425-2.06,3.88-2.735
				c1.695-0.79,3.585-1.228,5.58-1.228C185.23,242.532,191.18,248.475,191.18,255.807z"/>
			<path style="fill:#8A786F;" d="M347.37,255.807c0,7.328-5.94,13.27-13.27,13.27c-7.33,0-13.27-5.942-13.27-13.27
				c0-2.183,0.52-4.242,1.46-6.057c0.61-1.203,1.41-2.3,2.35-3.255c1.11-1.13,2.43-2.06,3.88-2.735c1.69-0.79,3.59-1.228,5.58-1.228
				C341.43,242.532,347.37,248.475,347.37,255.807z"/>
		</g>
		<path style="fill:#E8AEA9;" d="M320.05,323.87c0,35.212-28.67,40.022-64.05,40.022c-35.37,0-64.05-7.625-64.05-40.022
			c0-26.45,28.68-52.12,64.05-52.12C291.38,271.75,320.05,297.42,320.05,323.87z"/>
		<path style="fill:#F6B8B2;" d="M320.05,314.88c0,35.212-28.67,40.025-64.05,40.025c-35.37,0-64.05-7.628-64.05-40.025
			c0-26.45,28.68-52.117,64.05-52.117C291.38,262.763,320.05,288.43,320.05,314.88z"/>
		<g>
			<path style="fill:#DAA09C;" d="M240.06,318.947c0,7.33-5.95,13.273-13.27,13.273c-7.34,0-13.28-5.942-13.28-13.273
				c0-2.182,0.53-4.24,1.46-6.055c0.62-1.203,1.41-2.3,2.35-3.255c1.12-1.133,2.43-2.063,3.88-2.738
				c1.7-0.788,3.59-1.225,5.59-1.225C234.11,305.675,240.06,311.617,240.06,318.947z"/>
			<path style="fill:#DAA09C;" d="M298.49,318.947c0,7.33-5.94,13.273-13.27,13.273c-7.33,0-13.27-5.942-13.27-13.273
				c0-2.182,0.52-4.24,1.45-6.055c0.62-1.203,1.42-2.3,2.36-3.255c1.11-1.133,2.42-2.063,3.88-2.738
				c1.69-0.788,3.59-1.225,5.58-1.225C292.55,305.675,298.49,311.617,298.49,318.947z"/>
		</g>
	</g>
</g>
</svg>
