<?xml version="1.0" encoding="iso-8859-1"?>
<!-- Generator: Adobe Illustrator 18.0.0, SVG Export Plug-In . SVG Version: 6.00 Build 0)  -->
<!DOCTYPE svg PUBLIC "-//W3C//DTD SVG 1.1//EN" "http://www.w3.org/Graphics/SVG/1.1/DTD/svg11.dtd">
<svg version="1.1" id="_x31_" xmlns="http://www.w3.org/2000/svg" xmlns:xlink="http://www.w3.org/1999/xlink" x="0px" y="0px"
	 viewBox="0 0 512 512" style="enable-background:new 0 0 512 512;" xml:space="preserve">
<g>
	<rect style="fill:#99D4D9;" width="512" height="512"/>
	<path style="opacity:0.1;fill:#040000;" d="M512,180.429V510.31H271.667L165.325,404.019l-56.064-56.064
		C92.16,320.819,82.33,288.717,82.33,254.31c0-16.947,2.406-33.383,6.861-48.896c-0.409-0.205-0.768-0.41-1.126-0.666
		c-18.842-12.032-31.437-33.075-31.437-57.088c0-0.102,0.051-0.256,0.051-0.409c0.154-25.088,13.978-46.951,34.406-58.522
		c9.831-5.529,21.197-8.755,33.28-8.755c15.616,0,30.003,5.325,41.472,14.233c2.406,1.894,4.659,3.891,6.809,6.093
		c25.447-14.285,54.835-22.426,86.118-22.426c29.85,0,57.958,7.424,82.586,20.48c1.536-1.485,3.123-2.867,4.813-4.147
		c11.469-8.909,25.856-14.233,41.472-14.233c11.571,0,22.477,2.97,32,8.09L512,180.429z"/>
	<g>
		<path style="fill:#EFECE7;" d="M435.2,254.31c0,75.725-47.718,140.339-114.739,165.325c-19.251,7.168-39.987,11.111-61.696,11.111
			c-3.277,0-6.502-0.103-9.779-0.307c-19.456-1.075-38.042-5.274-55.347-12.083c-9.933-3.942-19.405-8.755-28.314-14.336
			c-22.682-14.182-41.882-33.382-56.064-56.064C92.16,320.819,82.33,288.717,82.33,254.31c0-16.947,2.406-33.383,6.861-48.896
			c0.154-0.563,0.358-1.127,0.512-1.69c4.506-15.053,10.906-29.184,18.995-42.24c6.605-10.65,14.285-20.531,22.887-29.491
			c3.482-3.584,7.066-7.014,10.803-10.291c9.267-8.141,19.405-15.36,30.259-21.402c25.447-14.285,54.835-22.426,86.118-22.426
			c29.85,0,57.958,7.424,82.586,20.48c8.551,4.506,16.64,9.728,24.218,15.514c6.912,5.273,13.414,11.008,19.456,17.203l0.051,0.051
			c7.987,8.141,15.155,17.101,21.35,26.675c0.41,0.512,0.717,1.024,1.024,1.587c8.499,13.209,15.258,27.699,19.968,43.008
			c0.41,1.28,0.819,2.611,1.178,3.891C432.896,221.542,435.2,237.619,435.2,254.31z"/>
		<path style="fill:#E1D9D2;" d="M435.201,254.294c0,75.766-47.724,140.375-114.744,165.333l-94.557-94.557l21.48-105.604
			l139.253-55.13l41.947,41.952C432.901,221.542,435.201,237.638,435.201,254.294z"/>
		<g>
			<path style="fill:#EED5B1;" d="M165.837,94.208c-11.776,6.605-19.047,17.562-23.45,27.494c-2.099,4.659-3.584,9.165-4.608,12.8
				c-1.331-0.768-2.714-1.382-4.096-1.894c-0.717-0.205-1.382-0.461-2.099-0.614c-0.41-0.153-0.819-0.256-1.178-0.307
				c-0.922-0.256-1.792-0.409-2.714-0.512c-1.024-0.154-1.997-0.205-3.021-0.205c-2.611,0-5.171,0.41-7.629,1.28
				c-0.973,0.358-1.946,0.768-2.918,1.28c-0.461,0.256-0.922,0.512-1.382,0.819c-16.179-17.101-20.531-36.147-21.658-45.619
				c9.831-5.529,21.197-8.755,33.28-8.755C139.981,79.974,154.368,85.299,165.837,94.208z"/>
			<path style="fill:#D5C7B0;" d="M110.131,136.243c-7.731,6.503-7.782,17.357-3.738,22.938
				c-20.787,2.97-38.451-4.249-49.715-11.929c0.154-25.088,13.978-46.951,34.406-58.522c1.127,9.472,5.478,28.518,21.658,45.619
				C111.872,134.912,111.002,135.526,110.131,136.243z"/>
			<path style="fill:#D5C7B0;" d="M192.102,147.661c0,0.973,0,1.997-0.102,2.97c-0.103,3.328-0.512,6.554-1.178,9.779v0.154
				c-4.301-0.717-8.704-1.177-12.902-1.382c-7.987-0.358-15.514,0.256-21.606,1.639c-0.051-0.359-0.154-0.717-0.205-1.075
				c-0.205-0.871-0.41-1.741-0.614-2.56c-0.41-1.434-0.87-2.816-1.434-4.147c-0.256-0.666-0.512-1.28-0.819-1.895
				c-0.205-0.409-0.41-0.87-0.666-1.331c-0.41-0.768-0.819-1.485-1.229-2.202c-0.717-1.126-1.434-2.253-2.253-3.328
				c-0.563-0.717-1.177-1.434-1.741-2.099c-0.103-0.102-0.205-0.256-0.308-0.358c-0.665-0.717-1.382-1.434-2.099-2.099
				c-0.768-0.717-1.536-1.383-2.304-1.997c-1.536-1.229-3.174-2.304-4.864-3.226c1.024-3.635,2.509-8.141,4.608-12.8
				c4.403-9.933,11.674-20.889,23.45-27.494c2.406,1.894,4.659,3.891,6.809,6.093c6.605,6.656,11.828,14.746,15.155,23.706
				C190.617,131.379,192.102,139.366,192.102,147.661z"/>
			<g>
				<path style="fill:#C7BBAB;" d="M95.3,208.776c8.818,4.206,18.649,6.627,29.071,6.627c11.523,0,22.34-2.93,31.831-8.007
					c-2.279-6.255-5.334-10.428-8.275-13.451C136.102,210.462,114.781,215.387,95.3,208.776z"/>
				<path style="fill:#E4CBAA;" d="M190.832,160.558c-12.504-2.087-25.193-1.895-34.531,0.268c1.55,8.867,0.147,19.032-5.877,29.575
					c-0.739,1.293-1.659,2.366-2.497,3.543c2.941,3.023,5.997,7.197,8.275,13.451C173.892,197.932,186.916,180.888,190.832,160.558z
					"/>
			</g>
			<path style="fill:#DCCEB7;" d="M111.528,162.623c1.183-5.329,15.012-22.702,35.84-20.418
				c-9.294-10.526-23.589-14.809-34.602-7.876c1.084,1.145,1.626,1.72,1.626,1.72s-0.542-0.575-1.626-1.72
				c-0.898,0.564-1.78,1.178-2.629,1.895c-7.744,6.534-7.771,17.367-3.768,22.937c1.189-0.17,1.78-0.257,1.78-0.257
				s-0.591,0.087-1.78,0.257C107.694,161.007,109.457,162.277,111.528,162.623z"/>
			<g>
				<path style="fill:#EED5B1;" d="M159.455,183.456c-1.314-0.909-2.936-1.862-4.699-2.826c-0.077,0.224-0.159,0.455-0.236,0.679
					L159.455,183.456z"/>
				<path style="fill:#EED5B1;" d="M154.521,181.31c0.077-0.224,0.159-0.455,0.236-0.679c-5.335-2.908-12.493-5.866-20.231-8.012
					L154.521,181.31z"/>
				<path style="fill:#F5DDB9;" d="M147.368,142.205c-20.828-2.284-34.657,15.089-35.84,20.418l0.695,6.944
					c7.213-0.29,14.99,1.025,22.302,3.051c7.738,2.147,14.896,5.104,20.231,8.012C159.723,165.252,155.451,151.362,147.368,142.205z
					"/>
			</g>
			<g>
				<path style="fill:#EED5B1;" d="M112.23,169.574c1.127,14.08-10.138,26.317-22.528,34.15c-0.563,0.358-1.075,0.717-1.638,1.024
					c-18.842-12.032-31.437-33.075-31.437-57.088c0-0.102,0.051-0.256,0.051-0.409c11.264,7.68,28.928,14.899,49.715,11.929
					c0.665,0.922,1.433,1.741,2.304,2.304c0.871,0.563,1.792,0.973,2.816,1.127L112.23,169.574z"/>
				<path style="fill:#DCCEB7;" d="M154.522,181.299c-0.256,0.717-0.512,1.434-0.768,2.15c-0.051,0.051-0.051,0.102-0.051,0.154
					c-0.307,0.717-0.614,1.485-0.973,2.202c-0.307,0.768-0.666,1.536-1.075,2.304c-0.41,0.768-0.819,1.536-1.229,2.304
					c-0.717,1.28-1.536,2.509-2.355,3.686c-0.409,0.563-0.819,1.075-1.229,1.638c-7.936,9.984-19.559,15.257-32,15.821
					c-2.099,0.154-4.25,0.102-6.451-0.102c-0.461,0-0.922-0.051-1.433-0.154c-1.075-0.051-2.151-0.205-3.226-0.409
					c-2.867-0.461-5.683-1.178-8.448-2.099c-2.099-1.024-4.147-2.15-6.093-3.379c-0.409-0.205-0.768-0.41-1.126-0.666
					c0.563-0.307,1.075-0.666,1.638-1.024c12.39-7.833,23.654-20.07,22.528-34.15c7.219-0.307,15.002,1.024,22.272,3.021
					l13.158,5.734L154.522,181.299z"/>
			</g>
		</g>
		<path style="fill:#FFFFFF;" d="M356.023,173.034c-19.448-12.498-37.286-23.167-37.286-23.167l-55.989-13.889H256h-6.747
			l-55.989,13.889c0,0-17.838,10.669-37.286,23.167c-9.321,5.992-18.089,10.313-15.97,15.976c3.538,9.437,24.892,14.07,36.289,2.782
			c0,0,0,42.062,0,59.084c0,17.021,45.813,32.62,45.813,58.152c0,25.374,33.469,24.136,33.891,24.12
			c0.422,0.016,33.891,1.254,33.891-24.12c0-25.533,45.813-41.131,45.813-58.152c0-17.022,0-59.084,0-59.084
			c11.397,11.288,32.751,6.655,36.289-2.782C374.113,183.347,365.344,179.026,356.023,173.034z"/>
		<path style="fill:#564236;" d="M210.362,217.516h-11.896l3.85,5.209c-0.498,1.106-0.783,2.322-0.783,3.603
			c0,4.875,3.954,8.829,8.829,8.829c4.869,0,8.818-3.954,8.818-8.829C219.18,221.465,215.231,217.516,210.362,217.516z"/>
		<g>
			<path style="fill:#EED5B1;" d="M420.915,88.729c0,0.154-0.051,0.358-0.051,0.563c-1.229,9.626-5.734,28.262-21.607,45.056
				c-0.461-0.307-0.922-0.563-1.382-0.819c-0.973-0.512-1.946-0.922-2.918-1.28c-2.458-0.87-5.018-1.28-7.629-1.28
				c-0.768,0-1.536,0.051-2.304,0.102c-0.256,0.051-0.461,0.051-0.717,0.102c-0.87,0.103-1.792,0.256-2.663,0.512
				c-0.307,0-0.614,0.102-0.922,0.205c-0.819,0.205-1.638,0.461-2.406,0.717c-1.383,0.512-2.765,1.127-4.096,1.894
				c-1.587-5.632-4.25-13.261-8.653-20.633c-4.454-7.475-10.701-14.797-19.405-19.661c11.469-8.909,25.856-14.233,41.472-14.233
				c11.571,0,22.477,2.97,32,8.09C420.096,88.269,420.506,88.473,420.915,88.729z"/>
			<path style="fill:#D5C7B0;" d="M405.632,159.162c4.003-5.57,3.976-16.403-3.768-22.937c-0.849-0.717-1.731-1.331-2.629-1.895
				c16.179-17.093,20.533-36.141,21.666-45.594c20.445,11.561,34.285,33.414,34.433,58.536
				C444.062,154.944,426.394,162.158,405.632,159.162z"/>
			<path style="fill:#D5C7B0;" d="M374.221,134.502c-1.69,0.922-3.328,1.997-4.864,3.226c-0.768,0.614-1.536,1.28-2.304,1.997
				c-0.717,0.666-1.434,1.382-2.099,2.099c-0.103,0.102-0.205,0.256-0.308,0.358c-0.563,0.666-1.177,1.382-1.741,2.099
				c-0.819,1.075-1.536,2.201-2.253,3.328c-0.41,0.717-0.819,1.434-1.229,2.202c-0.256,0.461-0.461,0.922-0.666,1.331
				c-0.307,0.615-0.563,1.229-0.819,1.895c-0.563,1.331-1.024,2.713-1.434,4.147c-0.205,0.819-0.41,1.689-0.614,2.56
				c-0.051,0.358-0.154,0.717-0.205,1.075c-6.092-1.382-13.619-1.997-21.606-1.639c-4.198,0.205-8.602,0.666-12.902,1.382
				c0-0.051,0-0.051,0-0.102c-0.666-3.226-1.075-6.502-1.177-9.83c-0.103-0.973-0.103-1.997-0.103-2.97
				c0-8.346,1.485-16.333,4.301-23.706c3.686-9.83,9.626-18.586,17.152-25.6c1.536-1.485,3.123-2.867,4.813-4.147
				c8.704,4.864,14.951,12.186,19.405,19.661C369.971,121.242,372.634,128.87,374.221,134.502z"/>
			<g>
				<path style="fill:#C7BBAB;" d="M416.7,208.776c-8.818,4.206-18.649,6.627-29.071,6.627c-11.523,0-22.34-2.93-31.831-8.007
					c2.279-6.255,5.335-10.428,8.275-13.451C375.898,210.462,397.219,215.387,416.7,208.776z"/>
				<path style="fill:#E4CBAA;" d="M321.168,160.558c12.503-2.087,25.193-1.895,34.532,0.268c-1.55,8.867-0.148,19.032,5.876,29.575
					c0.739,1.293,1.659,2.366,2.497,3.543c-2.941,3.023-5.997,7.197-8.275,13.451C338.108,197.932,325.085,180.888,321.168,160.558z
					"/>
			</g>
			<path style="fill:#DCCEB7;" d="M400.473,162.623c-1.183-5.329-15.012-22.702-35.841-20.418
				c9.295-10.526,23.589-14.809,34.602-7.876c-1.084,1.145-1.626,1.72-1.626,1.72s0.542-0.575,1.626-1.72
				c0.898,0.564,1.78,1.178,2.629,1.895c7.744,6.534,7.771,17.367,3.768,22.937c-1.188-0.17-1.78-0.257-1.78-0.257
				s0.592,0.087,1.78,0.257C404.306,161.007,402.543,162.277,400.473,162.623z"/>
			<g>
				<path style="fill:#EED5B1;" d="M352.545,183.456c1.314-0.909,2.935-1.862,4.699-2.826c0.077,0.224,0.159,0.455,0.236,0.679
					L352.545,183.456z"/>
				<path style="fill:#EED5B1;" d="M357.479,181.31c-0.076-0.224-0.159-0.455-0.236-0.679c5.335-2.908,12.493-5.866,20.232-8.012
					L357.479,181.31z"/>
				<path style="fill:#F5DDB9;" d="M364.632,142.205c20.829-2.284,34.657,15.089,35.841,20.418l-0.696,6.944
					c-7.213-0.29-14.99,1.025-22.301,3.051c-7.739,2.147-14.897,5.104-20.232,8.012
					C352.277,165.252,356.548,151.362,364.632,142.205z"/>
			</g>
			<g>
				<path style="fill:#EED5B1;" d="M399.777,169.567l0.696-6.944c2.07-0.346,3.833-1.616,5.159-3.461
					c20.762,2.996,38.431-4.217,49.702-11.89c0.006,0.137,0.016,0.274,0.016,0.41c0,24.016-12.553,45.036-31.41,57.047
					C410.873,196.962,398.605,184.267,399.777,169.567z"/>
				<path style="fill:#DCCEB7;" d="M377.476,172.618c7.311-2.026,15.088-3.341,22.301-3.051
					c-1.172,14.7,11.096,27.395,24.164,35.162c-2.327,1.484-4.732,2.853-7.24,4.047c-20.867,7.081-43.989,1.106-55.124-18.375
					c-1.753-3.073-3.078-6.107-4.097-9.092L377.476,172.618z"/>
			</g>
		</g>
		<path style="fill:#564236;" d="M301.638,217.516h11.896l-3.85,5.209c0.498,1.106,0.783,2.322,0.783,3.603
			c0,4.875-3.954,8.829-8.829,8.829c-4.869,0-8.818-3.954-8.818-8.829C292.82,221.465,296.769,217.516,301.638,217.516z"/>
		<path style="fill:#564236;" d="M275.383,328.099c0,3.253-8.659,5.882-19.345,5.882c-10.685,0-19.344-2.629-19.344-5.882
			c0-3.253,8.659-5.888,19.344-5.888C266.723,322.211,275.383,324.845,275.383,328.099z"/>
		<path style="fill:#EFECE7;" d="M300.871,111.776c-10.319,0-19.366,5.471-24.388,13.664c-5.526-4.667-12.652-7.481-20.445-7.481
			c-7.788,0-14.924,2.815-20.434,7.481c-5.038-8.194-14.07-13.664-24.399-13.664c-15.795,0-28.6,12.805-28.6,28.6
			c0,15.789,12.805,28.594,28.6,28.594c6.129,0,11.803-1.933,16.458-5.208c5.192,10.417,15.943,17.58,28.375,17.58
			c12.432,0,23.189-7.163,28.376-17.58c4.661,3.275,10.329,5.208,16.458,5.208c15.789,0,28.594-12.805,28.594-28.594
			C329.466,124.581,316.661,111.776,300.871,111.776z"/>
	</g>
</g>
</svg>
